<svg width="41" height="40" viewBox="0 0 41 40" fill="none" xmlns="http://www.w3.org/2000/svg">
<path d="M25.4219 15.4V11.8C25.4219 9.14903 23.2181 7 20.4996 7C17.7811 7 15.5774 9.14903 15.5774 11.8V15.4M10.153 17.0224L9.41471 24.7024C9.20478 26.886 9.09981 27.9778 9.47137 28.8211C9.79778 29.562 10.3698 30.1745 11.0957 30.5605C11.922 31 13.0465 31 15.2956 31H25.7036C27.9527 31 29.0772 31 29.9035 30.5605C30.6295 30.1745 31.2014 29.562 31.5278 28.8211C31.8994 27.9778 31.7944 26.886 31.5845 24.7024L30.8462 17.0224C30.6689 15.1784 30.5803 14.2564 30.155 13.5594C29.7805 12.9455 29.2272 12.4541 28.5654 12.1478C27.8141 11.8 26.8645 11.8 24.9653 11.8L16.034 11.8C14.1348 11.8 13.1852 11.8 12.4338 12.1478C11.772 12.4541 11.2187 12.9455 10.8442 13.5594C10.419 14.2564 10.3303 15.1784 10.153 17.0224Z" stroke="black" stroke-width="2" stroke-linecap="round" stroke-linejoin="round"/>
</svg>
