<svg width="260" height="47" viewBox="0 0 260 47" fill="none" xmlns="http://www.w3.org/2000/svg">
<circle cx="131.695" cy="24.3987" r="20.3528" fill="#1C008B"/>
<path d="M120.061 16.487C119.423 17.1262 119.559 18.0262 120.067 18.5336C120.088 18.5532 122.128 20.5025 124.998 23.3723C125.072 23.4461 125.168 23.4823 125.265 23.4823C125.361 23.4823 125.458 23.4454 125.532 23.3723C125.679 23.2253 125.679 22.9863 125.532 22.8393C125.099 22.4066 124.688 21.9973 124.297 21.6099L125.495 20.4121C125.642 20.2651 125.642 20.0261 125.495 19.8791C125.348 19.7321 125.109 19.7321 124.962 19.8791L123.761 21.0799C123.089 20.4166 122.498 19.8376 122.016 19.368L124.741 16.643C124.888 16.496 124.888 16.2571 124.741 16.1101C124.594 15.9631 124.355 15.9631 124.208 16.1101L121.475 18.8434C120.92 18.3059 120.6 18.0006 120.595 17.9953C120.436 17.8363 120.227 17.3885 120.595 17.0207L124.364 13.2516C124.51 13.1039 124.897 12.8106 125.322 13.2335C125.341 13.2546 127.244 15.4166 130.15 18.3217C130.297 18.4687 130.536 18.4687 130.683 18.3217C130.83 18.1747 130.83 17.9358 130.683 17.7888C127.795 14.9025 125.906 12.7571 125.872 12.7179C125.169 12.0169 124.322 12.2272 123.831 12.7179L120.061 16.487Z" fill="white"/>
<path d="M136.048 30.4321C135.901 30.2851 135.662 30.2851 135.515 30.4321L134.316 31.6307C133.95 31.2605 133.567 30.8731 133.163 30.469C133.016 30.322 132.777 30.322 132.63 30.469C132.483 30.616 132.483 30.855 132.63 31.002C135.422 33.7933 137.372 35.8784 137.4 35.9085C137.658 36.1678 138.013 36.3103 138.397 36.3103C138.793 36.3103 139.193 36.1558 139.441 35.907L143.209 32.095C143.683 31.6209 143.71 30.8165 143.268 30.3725L138.212 25.3183C138.065 25.1713 137.827 25.1713 137.68 25.3183C137.533 25.4652 137.533 25.7042 137.68 25.8512L142.735 30.9055C142.885 31.0562 142.857 31.3819 142.675 31.5636L138.907 35.3756C138.82 35.463 138.623 35.5565 138.397 35.5565C138.268 35.5565 138.082 35.5248 137.942 35.3839C137.934 35.3756 137.618 35.0386 137.07 34.465L139.817 31.7181C139.964 31.5711 139.964 31.3321 139.817 31.1852C139.67 31.0382 139.431 31.0382 139.284 31.1852L136.549 33.9207C136.078 33.4315 135.502 32.8367 134.845 32.1674L136.048 30.9643C136.195 30.818 136.195 30.5798 136.048 30.4321Z" fill="white"/>
<path d="M119.681 36.2235C119.754 36.2974 119.851 36.3366 119.951 36.3366C119.987 36.3366 120.023 36.3313 120.059 36.3208L127.597 34.0752C127.658 34.0571 127.712 34.0247 127.757 33.9794L140.639 21.0102C140.657 20.9921 140.666 20.9687 140.68 20.9483L143.436 18.1924C143.658 17.97 143.78 17.6753 143.78 17.361C143.78 17.0474 143.658 16.7526 143.436 16.5318L139.49 12.5863C139.047 12.1431 138.272 12.1431 137.829 12.5863L135.011 15.4048C134.993 15.4229 134.983 15.4463 134.969 15.4674L122.067 28.3703C122.025 28.4126 121.993 28.4638 121.975 28.5204L119.593 35.8436C119.549 35.977 119.583 36.1225 119.681 36.2235ZM135.299 16.2039L136.082 16.9871L124.38 28.7201L123.079 28.4246L135.299 16.2039ZM124.851 29.3164L136.616 17.5208L138.452 19.3571L126.581 31.0758H124.851V29.3164ZM139.84 20.7456L127.595 33.0734L127.16 31.5642L138.985 19.89L139.84 20.7456ZM122.584 29.085L124.097 29.4287V31.4527C124.097 31.6607 124.266 31.8296 124.474 31.8296H126.452L126.93 33.488L120.531 35.3943L122.584 29.085ZM138.363 13.1193C138.522 12.9602 138.799 12.9602 138.958 13.1193L142.904 17.0655C142.983 17.1446 143.027 17.2502 143.027 17.3625C143.027 17.474 142.983 17.5803 142.903 17.6602L140.362 20.2021L135.822 15.6619L138.363 13.1193Z" fill="white"/>
<path d="M2.74818 37.8535V9.99079H20.8698V14.2219H7.79558V21.7862H19.9311V26.0173H7.79558V33.6224H20.9787V37.8535H2.74818ZM29.5973 37.8535H24.2098L34.0189 9.99079H40.2499L50.0726 37.8535H44.6851L37.2433 15.7048H37.0256L29.5973 37.8535ZM29.7742 26.9288H44.4674V30.9831H29.7742V26.9288ZM68.4358 17.6503C68.3088 16.4622 67.7737 15.537 66.8304 14.8749C65.8962 14.2128 64.6808 13.8818 63.1843 13.8818C62.1322 13.8818 61.2298 14.0405 60.4769 14.3579C59.7241 14.6754 59.1482 15.1062 58.7491 15.6504C58.3501 16.1946 58.146 16.8159 58.1369 17.5143C58.1369 18.0947 58.2684 18.5981 58.5315 19.0244C58.8036 19.4507 59.1709 19.8135 59.6334 20.1128C60.096 20.403 60.6085 20.6479 61.1708 20.8475C61.7331 21.047 62.3 21.2148 62.8714 21.3508L65.4835 22.0039C66.5356 22.2488 67.5469 22.5798 68.5174 22.997C69.497 23.4142 70.3722 23.9403 71.1431 24.5752C71.9232 25.2101 72.5399 25.9765 72.9934 26.8744C73.4469 27.7723 73.6737 28.8244 73.6737 30.0307C73.6737 31.6633 73.2564 33.1009 72.422 34.3435C71.5876 35.577 70.3813 36.5429 68.8031 37.2413C67.234 37.9306 65.3339 38.2753 63.1027 38.2753C60.935 38.2753 59.053 37.9397 57.4567 37.2685C55.8694 36.5973 54.6269 35.6178 53.7289 34.3299C52.8401 33.0419 52.3594 31.4728 52.2868 29.6226H57.2526C57.3252 30.5931 57.6245 31.4003 58.1505 32.0442C58.6766 32.6882 59.3614 33.1689 60.2049 33.4864C61.0574 33.8038 62.0098 33.9625 63.0619 33.9625C64.1593 33.9625 65.1207 33.7993 65.9461 33.4728C66.7805 33.1372 67.4336 32.6746 67.9052 32.0851C68.3768 31.4864 68.6172 30.7881 68.6263 29.9899C68.6172 29.2643 68.404 28.6657 67.9868 28.1941C67.5696 27.7134 66.9846 27.3143 66.2318 26.9968C65.4881 26.6703 64.6174 26.3801 63.6197 26.1261L60.4497 25.3098C58.1551 24.7203 56.3411 23.8269 55.0078 22.6297C53.6836 21.4234 53.0215 19.8226 53.0215 17.8272C53.0215 16.1855 53.4659 14.7479 54.3548 13.5144C55.2527 12.2809 56.4726 11.3241 58.0145 10.6438C59.5564 9.95451 61.3023 9.60985 63.2523 9.60985C65.2296 9.60985 66.9619 9.95451 68.4494 10.6438C69.9459 11.3241 71.1205 12.2719 71.973 13.4872C72.8256 14.6935 73.2655 16.0812 73.2927 17.6503H68.4358ZM76.2688 9.99079H81.9692L88.7852 22.3168H89.0573L95.8734 9.99079H101.574L91.4382 27.4594V37.8535H86.4044V27.4594L76.2688 9.99079Z" fill="#1C008B"/>
<path d="M163.576 37.8535V9.99079H168.624V21.7862H181.535V9.99079H186.596V37.8535H181.535V26.0173H168.624V37.8535H163.576ZM192.085 37.8535V9.99079H210.207V14.2219H197.133V21.7862H209.268V26.0173H197.133V33.6224H210.316V37.8535H192.085ZM215.356 37.8535V9.99079H220.404V33.6224H232.675V37.8535H215.356ZM237.056 37.8535V9.99079H247.505C249.645 9.99079 251.441 10.3899 252.892 11.188C254.352 11.9862 255.454 13.0836 256.198 14.4804C256.951 15.8681 257.327 17.4462 257.327 19.2149C257.327 21.0016 256.951 22.5889 256.198 23.9766C255.445 25.3643 254.334 26.4572 252.865 27.2553C251.396 28.0444 249.586 28.439 247.437 28.439H240.512V24.2895H246.756C248.008 24.2895 249.033 24.0718 249.831 23.6365C250.629 23.2011 251.219 22.6025 251.6 21.8406C251.99 21.0787 252.185 20.2035 252.185 19.2149C252.185 18.2263 251.99 17.3555 251.6 16.6027C251.219 15.8499 250.625 15.2649 249.817 14.8477C249.019 14.4214 247.99 14.2083 246.729 14.2083H242.103V37.8535H237.056Z" fill="#1C008B"/>
</svg>
