<svg width="686" height="84" viewBox="0 0 686 84" fill="none" xmlns="http://www.w3.org/2000/svg">
<path d="M347.191 39.8753C356.301 38.2873 367.74 31.8292 376.955 19.5484C381.51 13.5138 384.475 7.37342 385.746 1.33887L390.195 1.33887C393.055 13.3021 401.105 25.0536 412.015 32.5703C417.522 36.3816 422.924 38.8166 428.538 39.8753L428.538 44.3218C417.84 46.1216 405.977 54.3794 398.033 65.6016C394.114 71.1068 391.466 76.8237 390.195 82.6466L385.746 82.6466C383.31 70.895 372.824 57.2379 362.126 50.4623C356.724 47.0744 351.746 45.0629 347.191 44.3218L347.191 39.8753Z" fill="black"/>
<path d="M0.279297 1.35484H9.89095V82.6452H0.279297V1.35484Z" fill="black"/>
<path d="M96.9859 1.35484V84H93.5356L41.7805 21.6774V82.6452H32.1689V0H35.6192L87.3743 62.4457V1.35484H96.9859Z" fill="black"/>
<path d="M143.197 84C136.871 84 131.079 82.4399 125.822 79.3196C120.646 76.1994 116.457 71.9296 113.253 66.5103L120.4 61.2141C126.479 70.4927 134.037 75.132 143.073 75.132C147.92 75.132 151.864 73.9003 154.903 71.437C157.943 68.9736 159.463 65.6891 159.463 61.5836C159.463 59.2023 158.929 57.1906 157.861 55.5484C156.793 53.9062 155.314 52.5103 153.424 51.3607C151.617 50.2111 149.112 48.8563 145.908 47.2962L136.789 42.9853C131.203 40.3578 126.725 37.4428 123.357 34.2405C120.071 30.956 118.428 26.6041 118.428 21.1847C118.428 16.9971 119.537 13.302 121.755 10.0997C123.973 6.89736 126.931 4.43401 130.628 2.70967C134.407 0.903224 138.514 0 142.95 0C148.372 0 153.301 1.27273 157.737 3.81818C162.256 6.36363 165.829 9.68915 168.458 13.7947L161.434 19.0909C159.216 15.8064 156.464 13.302 153.178 11.5777C149.974 9.77126 146.524 8.86803 142.827 8.86803C138.802 8.86803 135.392 9.89443 132.599 11.9472C129.806 14 128.41 16.915 128.41 20.6921C128.41 22.9912 128.944 24.9619 130.012 26.6041C131.079 28.1642 132.435 29.478 134.078 30.5455C135.803 31.5308 138.268 32.8035 141.472 34.3636L150.467 38.6745C156.875 41.7947 161.64 45.0381 164.761 48.4047C167.883 51.7713 169.444 56.0821 169.444 61.3372C169.444 65.7713 168.294 69.7126 165.994 73.1613C163.775 76.61 160.654 79.2786 156.628 81.1672C152.685 83.0557 148.208 84 143.197 84Z" fill="black"/>
<path d="M207.843 9.97654H179.255V1.35484H246.167V9.97654H217.455V82.6452H207.843V9.97654Z" fill="black"/>
<path d="M299.999 66.1408H260.074L253.173 82.6452H243.069L278.311 0H281.885L317.128 82.6452H306.9L299.999 66.1408ZM280.037 17.4897L263.771 57.5191H296.302L280.037 17.4897Z" fill="black"/>
<path d="M485.141 9.97654H456.552V1.35484H523.464V9.97654H494.752V82.6452H485.141V9.97654Z" fill="black"/>
<path d="M571.704 84C563.982 84 556.876 82.1525 550.386 78.4575C543.978 74.7625 538.885 69.7126 535.106 63.3079C531.409 56.8211 529.561 49.7185 529.561 42C529.561 34.1994 531.409 27.0968 535.106 20.6921C538.885 14.2874 543.978 9.23753 550.386 5.54252C556.876 1.84751 563.982 0 571.704 0C579.344 0 586.409 1.84751 592.899 5.54252C599.389 9.23753 604.523 14.2874 608.302 20.6921C612.081 27.0968 613.971 34.1994 613.971 42C613.971 49.8006 612.081 56.9032 608.302 63.3079C604.523 69.7126 599.389 74.7625 592.899 78.4575C586.409 82.1525 579.344 84 571.704 84ZM571.827 75.132C577.824 75.132 583.287 73.695 588.216 70.8211C593.146 67.8651 597.007 63.8827 599.8 58.8739C602.593 53.783 603.989 48.1173 603.989 41.8768C603.989 35.7185 602.593 30.1349 599.8 25.1261C597.007 20.0352 593.146 16.0528 588.216 13.1789C583.287 10.305 577.824 8.86803 571.827 8.86803C565.748 8.86803 560.244 10.305 555.315 13.1789C550.386 16.0528 546.525 19.9941 543.732 25.0029C540.939 30.0117 539.542 35.6364 539.542 41.8768C539.542 48.1173 540.939 53.783 543.732 58.8739C546.525 63.8827 550.386 67.8651 555.315 70.8211C560.244 73.695 565.748 75.132 571.827 75.132Z" fill="black"/>
<path d="M631.13 1.35484H659.719C664.976 1.35484 669.536 2.38123 673.397 4.43401C677.34 6.40469 680.379 9.19648 682.515 12.8094C684.651 16.3402 685.719 20.3636 685.719 24.8798C685.719 29.478 684.651 33.5836 682.515 37.1965C680.379 40.8094 677.34 43.6422 673.397 45.695C669.536 47.6657 664.976 48.651 659.719 48.651H640.742V82.6452H631.13V1.35484ZM659.472 40.0293C664.648 40.0293 668.632 38.6745 671.425 35.9648C674.3 33.173 675.738 29.5191 675.738 25.0029C675.738 20.5689 674.3 16.956 671.425 14.1642C668.632 11.3724 664.648 9.97654 659.472 9.97654H640.742V40.0293H659.472Z" fill="black"/>
</svg>
