<svg width="31" height="30" viewBox="0 0 31 30" fill="none" xmlns="http://www.w3.org/2000/svg">
<path d="M20.6035 11.25V7.5C20.6035 4.73858 18.3649 2.5 15.6035 2.5C12.8421 2.5 10.6035 4.73858 10.6035 7.5V11.25M5.09349 12.94L4.34349 20.94C4.13025 23.2146 4.02362 24.3519 4.40105 25.2303C4.73261 26.002 5.31364 26.6401 6.05101 27.0422C6.8904 27.5 8.0327 27.5 10.3173 27.5H20.8897C23.1743 27.5 24.3166 27.5 25.156 27.0422C25.8933 26.6401 26.4744 26.002 26.8059 25.2303C27.1834 24.3519 27.0767 23.2146 26.8635 20.94L26.1135 12.94C25.9334 11.0192 25.8434 10.0588 25.4114 9.3327C25.031 8.69323 24.4689 8.18139 23.7967 7.86231C23.0335 7.5 22.0689 7.5 20.1397 7.5L11.0673 7.5C9.1381 7.5 8.1735 7.5 7.41026 7.8623C6.73807 8.18139 6.176 8.69323 5.79557 9.3327C5.3636 10.0588 5.27357 11.0192 5.09349 12.94Z" stroke="white" stroke-width="2" stroke-linecap="round" stroke-linejoin="round"/>
</svg>
