<svg width="31" height="30" viewBox="0 0 31 30" fill="none" xmlns="http://www.w3.org/2000/svg">
<path d="M20.6025 9.99991V5.62573C20.6025 4.58605 20.6025 4.06621 20.3835 3.74675C20.1922 3.46763 19.8958 3.27803 19.5622 3.22126C19.1804 3.15628 18.7084 3.37412 17.7644 3.80981L6.67631 8.9274C5.83442 9.31596 5.41348 9.51024 5.10517 9.81155C4.83261 10.0779 4.62456 10.4031 4.49692 10.7622C4.35254 11.1684 4.35254 11.632 4.35254 12.5592V18.7499M21.2275 18.1249H21.24M4.35254 13.9999L4.35254 22.2499C4.35254 23.65 4.35254 24.3501 4.62502 24.8849C4.86471 25.3553 5.24716 25.7377 5.71756 25.9774C6.25234 26.2499 6.95241 26.2499 8.35254 26.2499H22.8525C24.2527 26.2499 24.9527 26.2499 25.4875 25.9774C25.9579 25.7377 26.3404 25.3553 26.5801 24.8849C26.8525 24.3501 26.8525 23.65 26.8525 22.2499V13.9999C26.8525 12.5998 26.8525 11.8997 26.5801 11.3649C26.3404 10.8945 25.9579 10.5121 25.4875 10.2724C24.9527 9.99991 24.2527 9.99991 22.8525 9.99991L8.35254 9.99991C6.95241 9.99991 6.25234 9.99991 5.71756 10.2724C5.24716 10.5121 4.86471 10.8945 4.62502 11.3649C4.35254 11.8997 4.35254 12.5998 4.35254 13.9999ZM21.8525 18.1249C21.8525 18.4701 21.5727 18.7499 21.2275 18.7499C20.8824 18.7499 20.6025 18.4701 20.6025 18.1249C20.6025 17.7797 20.8824 17.4999 21.2275 17.4999C21.5727 17.4999 21.8525 17.7797 21.8525 18.1249Z" stroke="white" stroke-width="2" stroke-linecap="round" stroke-linejoin="round"/>
</svg>
