<svg width="50" height="50" viewBox="0 0 50 50" fill="none" xmlns="http://www.w3.org/2000/svg">
<rect width="50" height="50" rx="25" fill="white"/>
<path d="M26.3343 18.2104C26.7696 17.6674 26.6822 16.8744 26.1391 16.4392C25.5961 16.004 24.8031 16.0914 24.368 16.6344L26.3343 18.2104ZM15.4425 29.7856L16.3968 30.6083C16.4067 30.5969 16.4163 30.5853 16.4257 30.5735L15.4425 29.7856ZM15.1552 30.4878L13.8977 30.4057L13.8966 30.4295L15.1552 30.4878ZM14.92 35.5665L13.6614 35.5082C13.6585 35.5707 13.6603 35.6333 13.6667 35.6957L14.92 35.5665ZM16.2422 36.7206L16.2834 37.98C16.3674 37.9771 16.451 37.966 16.5328 37.9465L16.2422 36.7206ZM21.2822 35.5262L21.5728 36.7522L21.5923 36.7473L21.2822 35.5262ZM21.929 35.1162L22.901 35.9181L22.912 35.9045L21.929 35.1162ZM33.0592 23.2507C33.4945 22.7078 33.4073 21.9148 32.8645 21.4794C32.3216 21.0441 31.5285 21.1313 31.0932 21.6742L33.0592 23.2507ZM24.3732 16.6341C23.9379 17.1769 24.025 17.97 24.5679 18.4053C25.1107 18.8407 25.9037 18.7536 26.3392 18.2107L24.3732 16.6341ZM28.024 14.096L29.007 14.8843C29.0235 14.8637 29.0394 14.8425 29.0547 14.8209L28.024 14.096ZM30.7608 13.5584L31.5668 12.59C31.5267 12.5566 31.4845 12.5257 31.4407 12.4976L30.7608 13.5584ZM34.5189 16.6866L35.4107 15.7964C35.3833 15.769 35.3547 15.7429 35.325 15.7181L34.5189 16.6866ZM34.5038 19.4384L33.6218 18.5385C33.5862 18.5735 33.5526 18.6106 33.5212 18.6496L34.5038 19.4384ZM31.0932 21.6742C30.6576 22.2169 30.7448 23.0093 31.2874 23.4449C31.8301 23.8806 32.6235 23.7934 33.0592 23.2507L31.0932 21.6742ZM26.6023 17.2357C26.4991 16.5475 25.8577 16.0732 25.1695 16.1763C24.4812 16.2795 24.007 16.9209 24.1101 17.6091L26.6023 17.2357ZM32.2459 23.7109C32.9353 23.6173 33.4183 22.9823 33.3248 22.2928C33.231 21.6032 32.5962 21.1202 31.9065 21.2139L32.2459 23.7109ZM24.368 16.6344L14.4593 28.9975L16.4257 30.5735L26.3343 18.2104L24.368 16.6344ZM14.4882 28.9627C14.1399 29.3668 13.9324 29.8733 13.8977 30.4057L16.4126 30.5698C16.4116 30.5839 16.4061 30.5975 16.3968 30.6083L14.4882 28.9627ZM13.8966 30.4295L13.6614 35.5082L16.1787 35.6248L16.4139 30.5461L13.8966 30.4295ZM13.6667 35.6957C13.8039 37.0261 14.9467 38.0236 16.2834 37.98L16.201 35.4613C16.1956 35.4615 16.193 35.4606 16.1913 35.46C16.1889 35.4591 16.1857 35.4574 16.1825 35.4546C16.1792 35.4517 16.1771 35.4489 16.1759 35.4467C16.175 35.445 16.1739 35.4425 16.1734 35.4371L13.6667 35.6957ZM16.5328 37.9465L21.5728 36.7522L20.9916 34.3001L15.9516 35.4946L16.5328 37.9465ZM21.5923 36.7473C22.1056 36.617 22.564 36.3267 22.901 35.9181L20.9569 34.3144C20.961 34.3097 20.9662 34.3063 20.9721 34.3048L21.5923 36.7473ZM22.912 35.9045L33.0592 23.2507L31.0932 21.6742L20.946 34.328L22.912 35.9045ZM26.3392 18.2107L29.007 14.8843L27.0411 13.3077L24.3732 16.6341L26.3392 18.2107ZM29.0547 14.8209C29.2876 14.4897 29.74 14.4008 30.0809 14.6193L31.4407 12.4976C29.9634 11.5509 28.0027 11.9361 26.9934 13.3712L29.0547 14.8209ZM29.9547 14.5268L33.7129 17.655L35.325 15.7181L31.5668 12.59L29.9547 14.5268ZM33.6272 17.5767C33.7547 17.7045 33.8259 17.8781 33.8249 18.0587L36.3449 18.0726C36.3496 17.2196 36.0133 16.4001 35.4107 15.7964L33.6272 17.5767ZM33.8249 18.0587C33.8241 18.2394 33.7508 18.4121 33.6218 18.5385L35.3858 20.3383C35.995 19.7412 36.3402 18.9255 36.3449 18.0726L33.8249 18.0587ZM33.5212 18.6496L31.0932 21.6742L33.0592 23.2507L35.4864 20.2272L33.5212 18.6496ZM24.1101 17.6091C24.697 21.5257 28.3216 24.2441 32.2459 23.7109L31.9065 21.2139C29.348 21.5615 26.985 19.7892 26.6023 17.2357L24.1101 17.6091Z" fill="black"/>
</svg>
