<svg width="408" height="50" viewBox="0 0 408 50" fill="none" xmlns="http://www.w3.org/2000/svg">
<path d="M206.495 23.7352C211.917 22.79 218.727 18.9459 224.212 11.6359C226.923 8.04389 228.688 4.38887 229.445 0.796874L232.093 0.796874C233.795 7.91785 238.587 14.9128 245.081 19.387C248.359 21.6557 251.574 23.1051 254.916 23.7352L254.916 26.382C248.548 27.4533 241.487 32.3686 236.758 39.0485C234.426 42.3254 232.849 45.7283 232.093 49.1943L229.445 49.1943C227.995 42.1994 221.753 34.0701 215.385 30.037C212.17 28.0204 209.206 26.8231 206.495 26.382L206.495 23.7352Z" fill="white"/>
<path d="M0 0.80645H5.72122V49.1935H0V0.80645Z" fill="white"/>
<path d="M57.5635 0.80645V50H55.5097L24.7031 12.9032V49.1935H18.9819V0H21.0357L51.8422 37.1701V0.80645H57.5635Z" fill="white"/>
<path d="M85.0699 50C81.3046 50 77.8572 49.0714 74.7277 47.2141C71.647 45.3568 69.1532 42.8152 67.2461 39.5894L71.5003 36.4369C75.1189 41.9599 79.6176 44.7214 84.9965 44.7214C87.8816 44.7214 90.2288 43.9883 92.038 42.522C93.8473 41.0557 94.752 39.1007 94.752 36.6569C94.752 35.2395 94.4341 34.042 93.7984 33.0645C93.1627 32.087 92.2825 31.2561 91.1579 30.5718C90.0821 29.8876 88.5906 29.0811 86.6836 28.1525L81.2558 25.5865C77.9306 24.0225 75.2656 22.2874 73.2607 20.3812C71.3047 18.4262 70.3268 15.8358 70.3268 12.61C70.3268 10.1173 70.9869 7.91789 72.3072 6.01173C73.6275 4.10557 75.3878 2.63929 77.5883 1.6129C79.8377 0.537633 82.2826 0 84.9232 0C88.1506 0 91.0845 0.757575 93.7251 2.27272C96.4145 3.78788 98.5417 5.76735 100.106 8.21114L95.9255 11.3636C94.6053 9.4086 92.9671 7.91789 91.0112 6.89149C89.1041 5.81622 87.0503 5.27859 84.8498 5.27859C82.4538 5.27859 80.4245 5.88954 78.7619 7.11144C77.0993 8.33333 76.268 10.0684 76.268 12.3167C76.268 13.6852 76.5859 14.8583 77.2216 15.8358C77.8572 16.7644 78.6641 17.5464 79.6421 18.1818C80.669 18.7683 82.1359 19.5259 84.043 20.4545L89.3975 23.0205C93.2116 24.8778 96.0478 26.8084 97.906 28.8123C99.7641 30.8162 100.693 33.3822 100.693 36.5103C100.693 39.1496 100.009 41.4956 98.6394 43.5484C97.3192 45.6012 95.461 47.1896 93.0649 48.3138C90.7178 49.4379 88.0528 50 85.0699 50Z" fill="white"/>
<path d="M123.55 5.93841H106.533V0.80645H146.362V5.93841H129.271V49.1935H123.55V5.93841Z" fill="white"/>
<path d="M178.405 39.3695H154.64L150.532 49.1935H144.518L165.495 0H167.622L188.6 49.1935H182.512L178.405 39.3695ZM166.522 10.4106L156.84 34.2375H176.204L166.522 10.4106Z" fill="white"/>
<path d="M288.608 5.93841H271.591V0.80645H311.419V5.93841H294.329V49.1935H288.608V5.93841Z" fill="white"/>
<path d="M340.134 50C335.537 50 331.308 48.9003 327.445 46.7009C323.63 44.5015 320.599 41.4956 318.349 37.6833C316.149 33.8221 315.049 29.5943 315.049 25C315.049 20.3568 316.149 16.129 318.349 12.3167C320.599 8.5044 323.63 5.49853 327.445 3.29912C331.308 1.09971 335.537 0 340.134 0C344.682 0 348.887 1.09971 352.75 3.29912C356.613 5.49853 359.669 8.5044 361.919 12.3167C364.168 16.129 365.293 20.3568 365.293 25C365.293 29.6432 364.168 33.871 361.919 37.6833C359.669 41.4956 356.613 44.5015 352.75 46.7009C348.887 48.9003 344.682 50 340.134 50ZM340.207 44.7214C343.777 44.7214 347.029 43.8661 349.963 42.1554C352.897 40.3959 355.195 38.0254 356.857 35.044C358.52 32.0137 359.351 28.6413 359.351 24.9267C359.351 21.261 358.52 17.9374 356.857 14.956C355.195 11.9257 352.897 9.55523 349.963 7.84457C347.029 6.13392 343.777 5.27859 340.207 5.27859C336.589 5.27859 333.312 6.13392 330.378 7.84457C327.445 9.55523 325.146 11.9013 323.484 14.8827C321.821 17.8641 320.99 21.2121 320.99 24.9267C320.99 28.6413 321.821 32.0137 323.484 35.044C325.146 38.0254 327.445 40.3959 330.378 42.1554C333.312 43.8661 336.589 44.7214 340.207 44.7214Z" fill="white"/>
<path d="M375.506 0.80645H392.523C395.653 0.80645 398.367 1.4174 400.665 2.63929C403.012 3.81232 404.822 5.4741 406.093 7.62463C407.364 9.72629 408 12.1212 408 14.8094C408 17.5464 407.364 19.9902 406.093 22.1408C404.822 24.2913 403.012 25.9775 400.665 27.1994C398.367 28.3724 395.653 28.9589 392.523 28.9589H381.228V49.1935H375.506V0.80645ZM392.377 23.827C395.457 23.827 397.829 23.0205 399.492 21.4076C401.203 19.7458 402.059 17.5709 402.059 14.8827C402.059 12.2434 401.203 10.0929 399.492 8.43108C397.829 6.7693 395.457 5.93841 392.377 5.93841H381.228V23.827H392.377Z" fill="white"/>
</svg>
