<svg width="24" height="20" viewBox="0 0 24 20" fill="none" xmlns="http://www.w3.org/2000/svg">
<path d="M23.1053 2.88223C23.3759 2.49586 23.3917 1.99852 23.1462 1.59756C22.9007 1.1966 22.436 0.960846 21.9459 0.988586L1.69184 2.13493C1.17868 2.16397 0.732218 2.4762 0.553785 2.9308C0.37535 3.38541 0.498668 3.89648 0.868122 4.23354L5.71266 8.65333C6.12862 9.03282 6.76097 9.10632 7.2622 8.83344L12.3943 6.03951C13.0143 5.70197 13.8071 5.90229 14.1651 6.48692C14.523 7.07156 14.3106 7.81913 13.6906 8.15668L8.55852 10.9506C8.05728 11.2235 7.80862 11.7766 7.94917 12.306L9.58618 18.472C9.71103 18.9423 10.1188 19.2985 10.6255 19.3801C11.1322 19.4617 11.6422 19.2532 11.9255 18.8487L23.1053 2.88223Z" fill="black"/>
</svg>
