<svg width="40" height="40" viewBox="0 0 40 40" fill="none" xmlns="http://www.w3.org/2000/svg">
<path d="M26.6667 13.3335V7.50129C26.6667 6.11506 26.6667 5.42194 26.3747 4.99599C26.1195 4.62384 25.7244 4.37103 25.2796 4.29534C24.7705 4.2087 24.1412 4.49916 22.8825 5.08007L8.09836 11.9035C6.97584 12.4216 6.41459 12.6806 6.00351 13.0824C5.6401 13.4376 5.36269 13.8711 5.19251 14.3499C5 14.8915 5 15.5097 5 16.746V25.0002M27.5 24.1669H27.5167M5 18.6669L5 29.6669C5 31.5337 5 32.4671 5.36331 33.1802C5.68289 33.8074 6.19282 34.3173 6.82003 34.6369C7.53307 35.0002 8.46649 35.0002 10.3333 35.0002H29.6667C31.5335 35.0002 32.4669 35.0002 33.18 34.6369C33.8072 34.3173 34.3171 33.8074 34.6367 33.1802C35 32.4671 35 31.5337 35 29.6669V18.6669C35 16.8 35 15.8666 34.6367 15.1536C34.3171 14.5264 33.8072 14.0164 33.18 13.6968C32.4669 13.3335 31.5335 13.3335 29.6667 13.3335L10.3333 13.3335C8.46649 13.3335 7.53307 13.3335 6.82003 13.6968C6.19283 14.0164 5.68289 14.5264 5.36331 15.1536C5 15.8666 5 16.8 5 18.6669ZM28.3333 24.1669C28.3333 24.6271 27.9602 25.0002 27.5 25.0002C27.0398 25.0002 26.6667 24.6271 26.6667 24.1669C26.6667 23.7066 27.0398 23.3335 27.5 23.3335C27.9602 23.3335 28.3333 23.7066 28.3333 24.1669Z" stroke="white" stroke-width="2" stroke-linecap="round" stroke-linejoin="round"/>
</svg>
