<svg width="158" height="28" viewBox="0 0 158 28" fill="none" xmlns="http://www.w3.org/2000/svg">
<circle cx="80.0673" cy="14.3153" r="12.3739" fill="#1C008B"/>
<path d="M72.9949 9.50472C72.6068 9.89335 72.6897 10.4406 72.9986 10.749C73.011 10.7609 74.2516 11.946 75.9963 13.6908C76.0412 13.7357 76.0999 13.7577 76.1585 13.7577C76.2172 13.7577 76.2759 13.7352 76.3208 13.6908C76.4101 13.6014 76.4101 13.4561 76.3208 13.3668C76.0577 13.1037 75.8075 12.8548 75.5701 12.6193L76.2983 11.8911C76.3877 11.8017 76.3877 11.6564 76.2983 11.567C76.209 11.4777 76.0637 11.4777 75.9743 11.567L75.2442 12.2971C74.8359 11.8938 74.4761 11.5418 74.1833 11.2563L75.84 9.59958C75.9294 9.51022 75.9294 9.36494 75.84 9.27557C75.7507 9.1862 75.6054 9.1862 75.516 9.27557L73.8542 10.9373C73.5169 10.6106 73.3226 10.425 73.3194 10.4218C73.2227 10.3251 73.0958 10.0528 73.3194 9.82919L75.6109 7.53772C75.6993 7.44789 75.9349 7.26962 76.1934 7.52672C76.2048 7.53955 77.362 8.85394 79.1283 10.6202C79.2177 10.7096 79.3629 10.7096 79.4523 10.6202C79.5417 10.5308 79.5417 10.3856 79.4523 10.2962C77.697 8.54138 76.5486 7.23708 76.5275 7.21325C76.1003 6.78703 75.5852 6.9149 75.2869 7.21325L72.9949 9.50472Z" fill="white"/>
<path d="M82.7157 17.9837C82.6263 17.8943 82.4811 17.8943 82.3917 17.9837L81.6625 18.7124C81.4403 18.4874 81.207 18.2518 80.9614 18.0062C80.872 17.9168 80.7267 17.9168 80.6373 18.0062C80.548 18.0955 80.548 18.2408 80.6373 18.3302C82.3349 20.0272 83.5205 21.2949 83.5374 21.3132C83.6946 21.4709 83.91 21.5575 84.1437 21.5575C84.3843 21.5575 84.6277 21.4635 84.7785 21.3123L87.069 18.9947C87.3573 18.7064 87.3738 18.2174 87.1048 17.9475L84.0315 14.8746C83.9421 14.7853 83.7968 14.7853 83.7074 14.8746C83.6181 14.964 83.6181 15.1093 83.7074 15.1987L86.7808 18.2715C86.8724 18.3632 86.855 18.5612 86.7446 18.6716L84.4535 20.9892C84.4008 21.0424 84.2812 21.0992 84.1437 21.0992C84.0649 21.0992 83.9522 21.0799 83.8669 20.9942C83.8624 20.9892 83.6703 20.7843 83.3371 20.4356L85.0072 18.7656C85.0965 18.6762 85.0965 18.5309 85.0072 18.4415C84.9178 18.3522 84.7725 18.3522 84.6832 18.4415L83.02 20.1047C82.734 19.8073 82.3834 19.4457 81.9843 19.0387L82.7157 18.3073C82.8051 18.2184 82.8051 18.0735 82.7157 17.9837Z" fill="white"/>
<path d="M72.7643 21.5045C72.8083 21.5494 72.8674 21.5732 72.9283 21.5732C72.9503 21.5732 72.9723 21.57 72.9939 21.5636L77.5768 20.1983C77.6139 20.1873 77.6469 20.1676 77.674 20.1401L85.5062 12.2552C85.5172 12.2442 85.5227 12.23 85.5309 12.2176L87.2065 10.5421C87.3412 10.4069 87.4159 10.2277 87.4159 10.0366C87.4159 9.84593 87.3412 9.66674 87.2065 9.53246L84.8073 7.13375C84.5378 6.86427 84.0672 6.86427 83.7977 7.13375L82.0841 8.84731C82.0731 8.85831 82.0672 8.87251 82.0589 8.88535L74.2148 16.73C74.1891 16.7556 74.1698 16.7868 74.1588 16.8212L72.7106 21.2735C72.6841 21.3546 72.7047 21.4431 72.7643 21.5045ZM82.2592 9.3331L82.7354 9.80927L75.6213 16.9426L74.8298 16.763L82.2592 9.3331ZM75.9072 17.3051L83.0598 10.1337L84.1762 11.2501L76.959 18.3748H75.9072V17.3051ZM85.0199 12.0943L77.5754 19.5893L77.311 18.6718L84.5002 11.5742L85.0199 12.0943ZM74.5291 17.1644L75.4489 17.3734V18.6039C75.4489 18.7304 75.5516 18.8331 75.6781 18.8331H76.8807L77.1712 19.8413L73.2812 21.0003L74.5291 17.1644ZM84.1221 7.45776C84.2188 7.36106 84.387 7.36106 84.4837 7.45776L86.8829 9.85693C86.931 9.90505 86.9576 9.96921 86.9576 10.0375C86.9576 10.1053 86.931 10.1699 86.8825 10.2185L85.3375 11.7639L82.5772 9.00359L84.1221 7.45776Z" fill="white"/>
<path d="M1.67081 22V5.06029H12.6882V7.63267H4.73948V12.2315H12.1175V14.8039H4.73948V19.4276H12.7544V22H1.67081ZM17.9943 22H14.7189L20.6825 5.06029H24.4708L30.4427 22H27.1672L22.6428 8.53425H22.5105L17.9943 22ZM18.1018 15.3581H27.0349V17.823H18.1018V15.3581ZM41.6069 9.71705C41.5297 8.99469 41.2044 8.43224 40.6309 8.0297C40.0629 7.62716 39.324 7.42589 38.4142 7.42589C37.7745 7.42589 37.2259 7.52239 36.7682 7.71539C36.3105 7.90839 35.9604 8.17031 35.7177 8.50116C35.4751 8.83202 35.351 9.20974 35.3455 9.63434C35.3455 9.98725 35.4255 10.2933 35.5854 10.5525C35.7508 10.8116 35.9741 11.0322 36.2554 11.2142C36.5366 11.3906 36.8482 11.5395 37.19 11.6608C37.5319 11.7821 37.8766 11.8841 38.224 11.9669L39.8121 12.3639C40.4517 12.5128 41.0665 12.714 41.6566 12.9677C42.2521 13.2213 42.7842 13.5412 43.2529 13.9272C43.7272 14.3132 44.1021 14.7791 44.3778 15.325C44.6535 15.8709 44.7914 16.5106 44.7914 17.244C44.7914 18.2365 44.5377 19.1105 44.0304 19.866C43.5231 20.6159 42.7897 21.2032 41.8303 21.6278C40.8763 22.0469 39.7211 22.2564 38.3646 22.2564C37.0467 22.2564 35.9025 22.0524 34.932 21.6443C33.967 21.2363 33.2115 20.6407 32.6656 19.8577C32.1252 19.0747 31.833 18.1207 31.7888 16.9958H34.8079C34.852 17.5859 35.034 18.0766 35.3538 18.4681C35.6736 18.8596 36.0899 19.1519 36.6028 19.3449C37.1211 19.5379 37.7001 19.6344 38.3398 19.6344C39.007 19.6344 39.5915 19.5351 40.0933 19.3366C40.6006 19.1326 40.9976 18.8514 41.2843 18.4929C41.5711 18.129 41.7172 17.7044 41.7227 17.2192C41.7172 16.778 41.5876 16.4141 41.334 16.1273C41.0803 15.8351 40.7247 15.5925 40.267 15.3995C39.8148 15.201 39.2854 15.0245 38.6789 14.8701L36.7517 14.3738C35.3566 14.0154 34.2537 13.4722 33.4431 12.7444C32.638 12.011 32.2355 11.0377 32.2355 9.82458C32.2355 8.8265 32.5057 7.9525 33.0461 7.20256C33.592 6.45263 34.3337 5.87088 35.2711 5.45731C36.2085 5.03823 37.27 4.82869 38.4556 4.82869C39.6577 4.82869 40.7109 5.03823 41.6152 5.45731C42.5251 5.87088 43.2391 6.44711 43.7575 7.18602C44.2758 7.91941 44.5433 8.76309 44.5598 9.71705H41.6069ZM46.3692 5.06029H49.8349L53.9788 12.5541H54.1442L58.2882 5.06029H61.7539L55.5917 15.6807V22H52.5313V15.6807L46.3692 5.06029Z" fill="#1C008B"/>
<path d="M99.4482 22V5.06029H102.517V12.2315H110.366V5.06029H113.443V22H110.366V14.8039H102.517V22H99.4482ZM116.781 22V5.06029H127.798V7.63267H119.849V12.2315H127.227V14.8039H119.849V19.4276H127.864V22H116.781ZM130.929 22V5.06029H133.998V19.4276H141.458V22H130.929ZM144.122 22V5.06029H150.474C151.775 5.06029 152.867 5.30291 153.75 5.78816C154.637 6.27342 155.307 6.94064 155.759 7.78983C156.217 8.63351 156.446 9.59298 156.446 10.6683C156.446 11.7546 156.217 12.7196 155.759 13.5632C155.302 14.4069 154.626 15.0714 153.733 15.5566C152.84 16.0364 151.74 16.2762 150.433 16.2762H146.223V13.7535H150.019C150.78 13.7535 151.403 13.6211 151.888 13.3564C152.374 13.0918 152.732 12.7278 152.964 12.2646C153.201 11.8014 153.319 11.2693 153.319 10.6683C153.319 10.0672 153.201 9.53784 152.964 9.08016C152.732 8.62248 152.371 8.26681 151.88 8.01316C151.395 7.75399 150.769 7.6244 150.003 7.6244H147.19V22H144.122Z" fill="#1C008B"/>
</svg>
